# xmcd CD database file
# Generated: Wed Aug 11 13:24:07 2004 by KSCD
# 
# Track frame offsets:
#       150
#       13434
#       25932
#       41336
#       55561
#       63811
#       87370
#       102327
#       117872
#       134329
#       148081
#       159465
#       188018
#       212110
#
# Disc length: 3084 seconds
#
# Revision: 2
# Processed by: cddbd v1.5.1PL0 Copyright (c) Steve Scherf et al.
# Submitted via: Kscd 1.3.3
#
DISCID=bd0c0a0e
DTITLE=John Lawless - Five and Dime
DYEAR=1900
DGENRE=
TTITLE0=Cemetery Ridge
TTITLE1=Twilight
TTITLE2=Daddy Rabbit
TTITLE3=On The Bean
TTITLE4=Guilty Pig
TTITLE5=How R Ya Waltz
TTITLE6=Listen To The Music
TTITLE7=Ben and Ginger
TTITLE8=None Finer
TTITLE9=Hillsville
TTITLE10=Baby Girl
TTITLE11=Nine 4 Nine
TTITLE12=Up All Night
TTITLE13=
EXTD=
EXTT0=
EXTT1=
EXTT2=
EXTT3=
EXTT4=
EXTT5=
EXTT6=
EXTT7=
EXTT8=
EXTT9=
EXTT10=
EXTT11=
EXTT12=
EXTT13=data\n
PLAYORDER=
